<?xml version="1.0" encoding="UTF-8" standalone="no"?>
<!-- Created with Inkscape (http://www.inkscape.org/) -->

<svg
   xmlns:dc="http://purl.org/dc/elements/1.1/"
   xmlns:cc="http://creativecommons.org/ns#"
   xmlns:rdf="http://www.w3.org/1999/02/22-rdf-syntax-ns#"
   xmlns:svg="http://www.w3.org/2000/svg"
   xmlns="http://www.w3.org/2000/svg"
   xmlns:sodipodi="http://sodipodi.sourceforge.net/DTD/sodipodi-0.dtd"
   xmlns:inkscape="http://www.inkscape.org/namespaces/inkscape"
   id="svg4997"
   version="1.1"
   inkscape:version="0.91 r13725"
   width="197.8125"
   height="262.5"
   viewBox="0 0 197.8125 262.5"
   sodipodi:docname="WinstonChurchill2.svg">
  <metadata
     id="metadata5003">
    <rdf:RDF>
      <cc:Work
         rdf:about="">
        <dc:format>image/svg+xml</dc:format>
        <dc:type
           rdf:resource="http://purl.org/dc/dcmitype/StillImage" />
        <dc:title></dc:title>
      </cc:Work>
    </rdf:RDF>
  </metadata>
  <defs
     id="defs5001" />
  <sodipodi:namedview
     pagecolor="#ffffff"
     bordercolor="#666666"
     borderopacity="1"
     objecttolerance="10"
     gridtolerance="10"
     guidetolerance="10"
     inkscape:pageopacity="0"
     inkscape:pageshadow="2"
     inkscape:window-width="1600"
     inkscape:window-height="837"
     id="namedview4999"
     showgrid="false"
     inkscape:zoom="2.552381"
     inkscape:cx="98.90625"
     inkscape:cy="131.25"
     inkscape:window-x="-8"
     inkscape:window-y="-8"
     inkscape:window-maximized="1"
     inkscape:current-layer="svg4997" />
  <path
     style="fill:#000000"
     d="m 43.617319,261.60064 c -0.789796,-1.27792 1.276201,-4.25798 4.118119,-5.94011 1.331446,-0.78808 3.437414,-2.31623 4.679927,-3.3959 1.242513,-1.07968 4.10998,-3.33168 6.372147,-5.00446 2.262167,-1.67278 4.840428,-3.67423 5.729468,-4.44767 0.88904,-0.77344 1.20673,-1.08984 0.705978,-0.70313 -0.500752,0.38672 -1.986239,0.71655 -3.301083,0.73294 -1.314844,0.0164 -3.209539,0.64922 -4.210434,1.40625 -1.000895,0.75704 -2.713231,1.37644 -3.805191,1.37644 -1.09196,0 -2.804296,0.6194 -3.805191,1.37644 -4.921718,3.72259 -6.625158,-1.93921 -2.605545,-8.66018 3.502506,-5.85634 4.405954,-8.07573 5.925659,-14.55682 1.448827,-6.17882 1.829935,-6.60924 4.859531,-5.48826 3.746199,1.38614 4.431054,0.48547 2.934285,-3.85894 -0.743877,-2.15911 -1.386258,-5.1128 -1.427511,-6.56373 -0.256888,-9.03508 -12.200116,-7.39664 -25.591476,3.51077 -2.976108,2.42407 -6.403333,4.85949 -7.616055,5.41204 -1.21272,0.55255 -2.204947,1.31889 -2.204947,1.70296 0,0.38408 -1.479556,2.5312 -3.287903,4.7714 -6.218677,7.70374 -6.195573,7.66324 -14.2903155,25.05192 -1.791282,3.84794 -3.0419816,7.84595 -2.8191344,9.0117 0.4777885,2.49938 -2.5348753,5.02215 -3.37692935,2.82779 -1.47471457,-3.84304 7.45292745,-26.65477 11.86457325,-30.31611 0.755254,-0.62681 3.214507,-4.06234 5.465005,-7.63454 2.250498,-3.57219 4.93762,-6.8972 5.971384,-7.38891 1.033763,-0.49172 4.575247,-3.08936 7.869963,-5.77255 6.699285,-5.45583 16.114332,-10.29811 20.025232,-10.29924 1.417969,-4e-4 2.578125,-0.22927 2.578125,-0.50858 0,-1.71384 -6.480963,-13.84862 -10.815549,-20.25075 -2.817073,-4.16079 -5.124394,-7.83677 -5.127381,-8.16886 -0.003,-0.33209 -0.433719,-3.13505 -0.957184,-6.2288 C 36.951422,160.5 36.309522,154.80469 36.048442,150.9375 35.336023,140.38493 34.854293,137.47979 32.42518,129.08693 31.202536,124.86256 29.890953,117.60938 29.510551,112.96875 29.130148,108.32813 28.22198,101.15625 27.492397,97.03125 24.507048,80.152319 23.946051,70.587013 25.628445,65.249844 26.485926,62.529604 27.1875,58.927897 27.1875,57.246052 27.1875,49.133094 33.684251,30.885318 38.618975,25.13785 45.898208,16.659733 61.682436,7.0370967 70.098555,5.9467588 72.536537,5.6309095 75.216729,4.7788897 76.054538,4.0533814 76.892347,3.3278731 77.947034,2.8383541 78.398288,2.9655615 78.849542,3.0927688 80.695312,2.6990719 82.5,2.0906794 84.304687,1.4822869 86.625,1.0267882 87.65625,1.0784599 88.6875,1.1301321 96.548344,0.84719539 105.12479,0.44971276 136.54147,-1.00632 152.86371,3.3646237 165.22341,16.54357 c 0.89631,0.955724 3.55279,3.794654 5.90329,6.308734 8.29537,8.87268 16.42398,29.745846 15.18402,38.990454 -0.31952,2.382273 -0.0763,4.058456 0.68009,4.686173 1.76809,1.467395 0.99373,40.612019 -0.91016,46.008189 -0.76623,2.17174 -1.39315,5.41385 -1.39315,7.20469 0,1.79084 -0.68927,4.70861 -1.53172,6.48391 -1.38798,2.92497 -1.39396,3.33412 -0.0637,4.36044 0.80739,0.62293 2.1443,3.50641 2.97092,6.40773 1.63809,5.74949 3.35464,7.83223 7.25796,8.8063 2.69151,0.67166 5.13854,2.92785 4.19686,3.86953 -0.30906,0.30906 -1.31839,0.22748 -2.24297,-0.18128 -6.74259,-2.98087 -9.29123,-2.98303 -11.05645,-0.009 l -1.70049,2.86464 -0.58167,-2.27424 c -0.77271,-3.02119 -2.49415,-3.46794 -3.81963,-0.99127 -0.61132,1.14229 -1.6397,1.78717 -2.39049,1.49907 -1.40009,-0.53727 -2.17332,0.38155 -7.79811,9.26644 -2.20724,3.48656 -6.53611,8.11986 -11.3867,12.1875 -4.30412,3.60938 -14.63124,13.3125 -22.94915,21.5625 -8.3179,8.25 -16.57189,16.27631 -18.34217,17.83625 -3.01556,2.65725 -13.66195,11.43677 -16.829953,13.87878 -3.514912,2.70942 -12.273523,8.15237 -15.126851,9.40042 -1.725283,0.75468 -4.613449,2.67774 -6.418136,4.27349 -1.804688,1.59576 -4.019531,3.13872 -4.921875,3.42879 -0.902344,0.29008 -1.640625,0.85316 -1.640625,1.2513 0,0.71776 -10.826628,9.46226 -11.715288,9.46226 -0.254523,0 -3.080479,2.10937 -6.279902,4.6875 -5.809492,4.68134 -7.652104,5.48365 -8.699991,3.78814 z M 49.6875,243.75 c 0,-0.51563 -0.421875,-0.9375 -0.9375,-0.9375 -0.515625,0 -0.9375,0.42187 -0.9375,0.9375 0,0.51562 0.421875,0.9375 0.9375,0.9375 0.515625,0 0.9375,-0.42188 0.9375,-0.9375 z m 1.875,-4.21875 c 0,-0.77344 -0.421875,-1.40625 -0.9375,-1.40625 -0.515625,0 -0.9375,0.63281 -0.9375,1.40625 0,0.77344 0.421875,1.40625 0.9375,1.40625 0.515625,0 0.9375,-0.63281 0.9375,-1.40625 z m 7.5,0.0553 c 0,-0.22738 -0.421875,-0.67415 -0.9375,-0.99283 -0.515625,-0.31867 -0.9375,-0.13264 -0.9375,0.41342 0,0.54606 0.421875,0.99283 0.9375,0.99283 0.515625,0 0.9375,-0.18604 0.9375,-0.41342 z m 6.887482,-4.0701 c -0.295983,-1.13184 -0.913204,-1.8261 -1.371601,-1.54278 -0.469019,0.28986 -0.389202,1.34518 0.18254,2.41349 1.260002,2.35434 1.908287,1.87962 1.189061,-0.87071 z m -6.247063,-0.37976 c -0.299274,-0.74787 -0.521421,-0.52573 -0.566406,0.56641 -0.04071,0.98827 0.18087,1.54199 0.492394,1.23047 0.311522,-0.31153 0.344829,-1.12013 0.07402,-1.79688 z m -4.605263,0 C 54.518212,233.39839 52.5,233.11007 52.5,234.76563 c 0,0.8164 0.667969,1.48437 1.484375,1.48437 0.816407,0 1.317383,-0.50098 1.113281,-1.11328 z M 62.8125,232.5 c 0,-0.51563 -0.186039,-0.9375 -0.413422,-0.9375 -0.227382,0 -0.674154,0.42187 -0.992828,0.9375 -0.318674,0.51562 -0.132634,0.9375 0.413422,0.9375 0.546055,0 0.992828,-0.42188 0.992828,-0.9375 z m 7.5,-1.40625 c 0,-0.77344 -0.165802,-1.40625 -0.368448,-1.40625 -0.202646,0 -0.611281,0.63281 -0.908076,1.40625 -0.296797,0.77344 -0.130995,1.40625 0.368447,1.40625 0.499442,0 0.908077,-0.63281 0.908077,-1.40625 z M 67.5,231.20854 c 0,-0.19467 -0.64247,-0.88716 -1.427711,-1.53885 -1.193763,-0.99073 -1.330948,-0.93274 -0.837198,0.35396 0.504277,1.31412 2.264909,2.23521 2.264909,1.18489 z M 78.75,228.75 c 0,-0.51563 -0.421875,-0.9375 -0.9375,-0.9375 -0.515625,0 -0.9375,0.42187 -0.9375,0.9375 0,0.51562 0.421875,0.9375 0.9375,0.9375 0.515625,0 0.9375,-0.42188 0.9375,-0.9375 z m 4.169263,-1.01757 c -0.301852,-0.48841 -0.948428,-0.64105 -1.436835,-0.33919 -0.488407,0.30185 -0.641043,0.94842 -0.339191,1.43683 0.301852,0.48841 0.948428,0.64105 1.436835,0.33919 0.488407,-0.30185 0.641043,-0.94842 0.339191,-1.43683 z M 74.0625,226.81967 c 0,-0.4852 -0.421875,-0.88217 -0.9375,-0.88217 -0.515625,0 -0.9375,0.65771 -0.9375,1.46158 0,0.80387 0.421875,1.20085 0.9375,0.88217 0.515625,-0.31868 0.9375,-0.97639 0.9375,-1.46158 z m 11.71875,0.0553 c 0.318674,-0.51563 0.132634,-0.9375 -0.413422,-0.9375 -0.546055,0 -0.992828,0.42187 -0.992828,0.9375 0,0.51562 0.186039,0.9375 0.413422,0.9375 0.227382,0 0.674154,-0.42188 0.992828,-0.9375 z M 57.1875,225.39063 c 0,-0.81641 -0.500977,-1.31739 -1.113281,-1.11328 -1.738334,0.57944 -2.02665,2.59765 -0.371094,2.59765 0.816406,0 1.484375,-0.66797 1.484375,-1.48437 z m 3.75,-1.38346 c 0,-0.4852 -0.421875,-0.88217 -0.9375,-0.88217 -0.515625,0 -0.9375,0.65771 -0.9375,1.46158 0,0.80387 0.421875,1.20085 0.9375,0.88217 0.515625,-0.31868 0.9375,-0.97639 0.9375,-1.46158 z m 11.661039,-0.089 2.374263,-1.08178 -3.502025,-3.84009 c -1.926115,-2.11204 -4.240365,-4.89477 -5.142778,-6.18383 l -1.640751,-2.34375 0.589887,3.75 c 0.625876,3.97879 3.0355,8.90625 4.355326,8.90625 0.434883,0 0.529963,0.42187 0.211289,0.9375 -0.749941,1.21343 -0.156902,1.18237 2.754789,-0.14429 z m 12.966178,0.46685 c -0.634718,-0.2568 -1.900343,-0.27243 -2.8125,-0.0348 -0.912157,0.23769 -0.392842,0.4478 1.154033,0.46691 1.546875,0.0191 2.293185,-0.17537 1.658467,-0.43218 z m 13.61907,-5.72949 c 6.415123,-4.55849 7.296473,-6.28087 1.473393,-2.87943 -1.994258,1.16491 -5.937224,3.26949 -8.762131,4.67684 -5.085953,2.53377 -5.104296,2.55801 -1.875,2.47783 2.273167,-0.0564 5.049473,-1.3517 9.163738,-4.27524 z m -13.326393,1.21792 c 2.549364,-0.75708 6.106404,-2.47791 7.904531,-3.82406 4.631334,-3.46722 11.850565,-7.03487 15.056115,-7.44056 4.2084,-0.53261 7.70825,-3.3716 23.00887,-18.6643 7.79387,-7.78983 18.14347,-17.96019 22.99912,-22.60082 12.57743,-12.02045 16.45206,-18.86785 16.64371,-29.41347 0.0783,-4.30856 0.53143,-8.5607 1.00693,-9.44919 0.47551,-0.8885 0.70157,-2.42194 0.50236,-3.40765 -1.25422,-6.20604 -1.27991,-8.97161 -0.079,-8.51079 0.68558,0.26308 1.78168,-0.016 2.43579,-0.62028 0.92655,-0.85593 1.02455,-0.80971 0.44365,0.20918 -0.58015,1.01757 -0.19456,1.20246 1.73747,0.83313 2.05741,-0.3933 2.47797,-0.13535 2.45327,1.5047 -0.0356,2.36268 -2.8163,6.2069 -3.39283,4.69044 -0.21724,-0.5714 -0.94907,-1.79669 -1.62629,-2.72284 -1.54719,-2.11591 -1.08873,3.38813 0.56407,6.77191 0.75712,1.55005 0.64688,3.55925 -0.4372,7.96875 -0.79727,3.24285 -1.30319,6.05029 -1.12426,6.23874 0.96013,1.0112 6.10373,-9.01474 5.70687,-11.12388 -0.24255,-1.28906 0.13238,-2.98315 0.83318,-3.76464 1.90199,-2.12101 3.85605,-14.38203 3.73296,-23.42286 -0.22404,-16.455664 -8.07741,-28.930868 -12.98381,-20.624999 -0.91376,1.546875 -2.01992,2.8125 -2.45814,2.8125 -1.5505,0 1.30959,-6.779875 3.5016,-8.300563 5.54654,-3.847847 7.32656,-5.701294 5.50525,-5.732311 -0.95682,-0.01629 -2.99309,1.025061 -4.52506,2.314124 -4.49803,3.784843 -6.53401,2.999206 -8.54607,-3.297733 -2.34945,-7.352807 -3.7487,-14.755788 -3.19164,-16.885988 0.29681,-1.134969 0.0817,-2.796845 -0.47798,-3.693056 -0.726,-1.162512 -0.73061,-2.452827 -0.016,-4.502571 0.84765,-2.43156 0.72503,-3.123352 -0.79786,-4.501549 -0.9897,-0.895641 -1.79944,-2.144217 -1.79944,-2.774603 0,-0.630386 -0.63281,-1.671345 -1.40625,-2.313241 -1.84045,-1.527437 -1.79666,-4.375847 0.0834,-5.428006 1.35445,-0.75799 1.34902,-0.974345 -0.0598,-2.383144 -0.8522,-0.852207 -1.32844,-1.90709 -1.0583,-2.344185 0.92968,-1.504173 -6.82428,-8.402795 -12.26534,-10.912401 -2.99749,-1.382546 -6.71561,-3.095482 -8.26248,-3.806526 C 121.97797,4.549501 83.746057,3.1510208 71.71875,8.4188355 70.6875,8.8705105 68.359497,9.4821338 66.545411,9.7779994 62.183872,10.489337 57.241526,13.191635 49.002201,19.370002 39.142039,26.763776 37.564974,29.237973 31.76918,46.40625 30.154492,51.189269 28.05979,63.833724 27.498214,72.1875 l -0.535694,7.96875 2.282288,-2.109375 c 2.559128,-2.36524 6.561844,-2.689079 14.89571,-1.205135 2.793027,0.497332 6.63016,1.143613 8.526961,1.436181 4.49875,0.6939 8.250734,3.63164 6.679775,5.230153 -0.879786,0.895219 -2.092106,0.723865 -5.625,-0.795056 -6.740653,-2.898057 -17.147509,-3.580956 -19.609986,-1.286809 -1.051962,0.980051 -2.814182,2.068044 -3.916044,2.417762 -1.549986,0.491946 -1.91195,1.20746 -1.59937,3.161564 0.222208,1.389143 1.052056,8.431965 1.844107,15.650715 1.939247,17.6743 3.220625,25.23074 5.306627,31.29381 0.963826,2.80141 1.752412,7.42464 1.752412,10.27384 0,15.99896 2.399544,24.57119 9.979365,35.65073 2.245724,3.28261 4.083135,6.42183 4.083135,6.97606 0,0.55422 0.527344,0.31323 1.171875,-0.53554 2.449803,-3.22611 6.209129,-3.72765 8.600406,-1.14742 2.058086,2.22071 2.318484,2.27087 4.872872,0.9387 1.484228,-0.77406 3.509129,-1.40998 4.499777,-1.41315 0.99065,-0.003 2.573407,-0.70463 3.517238,-1.55879 1.598788,-1.44689 1.924438,-1.44079 4.765405,0.0892 3.562216,1.91838 10.875766,2e-4 16.81278,-4.40962 5.254637,-3.90297 14.718307,-5.94491 16.228397,-3.50154 0.73824,1.1945 4.8681,1.22469 5.5997,0.041 0.30475,-0.49311 1.1734,-0.6589 1.93033,-0.36845 0.75692,0.29045 1.37622,0.016 1.37622,-0.61001 0,-0.62596 0.62093,-0.89983 1.37983,-0.60862 1.63836,0.6287 6.92172,-1.01186 8.99177,-2.79206 2.25829,-1.9421 6.86542,-13.60893 10.68892,-27.06807 1.90425,-6.70313 4.57526,-15.3422 5.93559,-19.19794 2.21317,-6.27306 2.47657,-8.39314 2.50423,-20.15625 0.026,-11.046427 0.25549,-13.14581 1.43716,-13.14581 0.99977,0 1.32526,0.812966 1.12605,2.8125 -0.42098,4.225453 -0.48571,11.29268 -0.18255,19.92897 0.22595,6.43665 -0.0175,8.0611 -1.44439,9.63779 -1.06127,1.17269 -2.0015,4.26678 -2.46399,8.10841 -0.64754,5.37873 -5.01002,16.28621 -7.24158,18.10608 -0.31613,0.25781 -0.68983,1.8986 -0.83044,3.64618 -0.22392,2.78311 -3.1839,12.361 -5.33432,17.26082 -0.64811,1.47673 -0.40308,1.60497 1.95577,1.02357 4.2648,-1.05117 6.36366,-2.81834 10.19238,-8.58162 1.96582,-2.95911 4.71821,-7.0677 6.11641,-9.1302 1.39819,-2.0625 2.83823,-4.69922 3.20009,-5.85937 0.74635,-2.3929 2.40657,-2.8522 2.40657,-0.66578 0,3.34013 -8.37755,17.03963 -13.29994,21.7489 -3.57765,3.42276 -16.79696,8.13889 -22.32506,7.9647 -7.88362,-0.24841 -23.41717,4.23942 -30.65809,8.85748 -4.270986,2.72392 -5.668586,3.11445 -11.25,3.14354 -3.505239,0.0183 -7.386556,0.5948 -8.625152,1.28118 -2.304611,1.27713 -5.254295,1.0192 -7.3793,-0.64529 -1.634823,-1.28053 -12.400189,-1.41034 -12.400059,-0.14953 1.95e-4,1.90731 5.921314,10.31963 11.371144,16.15535 3.027177,3.24152 5.503957,6.36491 5.503957,6.94088 0,1.57075 7.580573,8.25919 9.360833,8.25919 0.851869,0 3.634696,-0.61943 6.184061,-1.37651 z M 49.066561,160.72271 c -0.89265,-2.32621 1.807221,-6.2166 5.922362,-8.53385 1.982655,-1.11644 4.731385,-3.19168 6.10829,-4.61162 6.221559,-6.41606 41.738337,-6.80154 43.740507,-0.47472 0.30715,0.9706 -0.0513,1.12948 -1.35042,0.59865 -3.927959,-1.60494 -18.736214,-1.69719 -26.303454,-0.16387 -4.139953,0.83886 -9.212675,1.5252 -11.272716,1.5252 -2.495139,0 -4.286116,0.59735 -5.364855,1.78933 -0.89063,0.98414 -2.836121,2.29335 -4.323313,2.90937 -1.76945,0.73293 -3.06572,2.21608 -3.750621,4.29135 -1.253527,3.79823 -2.575254,4.83447 -3.40578,2.67016 z m 15.476445,-2.86148 c -6.469238,-3.41859 7.149627,-8.04355 20.68042,-7.02307 1.930554,0.1456 -1.231411,3.42539 -4.431827,4.59698 -10.560886,3.86605 -12.870933,4.21097 -16.248593,2.42609 z m 4.262121,-17.77411 c -0.65334,-2.60312 0.864818,-6.96212 2.424774,-6.96212 0.52668,0 0.957599,1.44206 0.957599,3.20457 0,5.94082 -2.216419,8.40308 -3.382373,3.75755 z m -15.036441,-6.72775 c 1.420541,-5.09372 1.737718,-5.85937 2.427303,-5.85937 0.416424,0 1.020623,-1.31743 1.342663,-2.92763 0.494721,-2.47361 0.803675,-2.74659 1.992187,-1.76021 1.734142,1.43921 1.820555,3.39091 0.178044,4.0212 -0.67574,0.25931 -1.747362,2.20288 -2.381383,4.31906 -1.117821,3.73095 -4.583133,5.87992 -3.558814,2.20695 z m 46.158398,-5.9313 C 98.592188,125.84164 97.5,123.9432 97.5,123.20932 c 0,-1.78709 -0.665906,-1.68405 -3.494184,0.54068 -3.436318,2.70301 -4.380398,2.30572 -2.040774,-0.85879 3.092592,-4.18294 2.879246,-9.61518 -0.516837,-13.15992 -2.520443,-2.63077 -2.583399,-2.85629 -0.797374,-2.85629 2.211535,0 6.242672,4.8382 7.170685,8.60632 0.34034,1.38191 1.23015,3.12391 1.977356,3.87112 0.747208,0.74721 1.637058,2.46819 1.977448,3.82442 0.34039,1.35622 0.99403,2.6977 1.45254,2.98108 1.0965,0.67767 1.07932,4.15456 -0.0205,4.15456 -0.46978,0 -1.94634,-1.298 -3.281245,-2.88443 z m -28.208334,0.7588 c -1.03125,-0.62023 -3.089589,-1.13397 -4.574087,-1.14165 -3.052881,-0.0158 -4.941407,-2.23032 -3.998176,-4.68834 0.476869,-1.2427 1.296379,-1.51518 3.332367,-1.10798 2.113312,0.42266 2.798834,0.16197 3.154932,-1.19975 0.313476,-1.19873 1.233229,-1.69552 2.95773,-1.59756 1.888435,0.10727 2.397748,0.54465 2.074893,1.78185 -0.235336,0.90184 -0.151083,1.81077 0.187229,2.01985 0.986595,0.60975 0.707958,6.46875 -0.322388,6.77899 -0.515625,0.15525 -1.78125,-0.22519 -2.8125,-0.84541 z m 11.71875,-5.31904 c 0,-2.4353 -1.423138,-3.17563 -3.730625,-1.9407 -2.711812,1.45132 -2.527406,-0.94309 0.275423,-3.57621 4.827702,-4.53539 12.61876,1.54802 7.955202,6.21158 -1.785517,1.78552 -4.5,1.36648 -4.5,-0.69467 z M 80.390625,110.92604 C 78.856032,110.51586 78.19637,108.27078 78.649401,105 c 0.107127,-0.77344 0.224338,-2.03906 0.260467,-2.8125 0.813873,-17.422928 5.285217,-26.2437 5.822953,-11.487134 0.06499,1.783371 0.606241,3.045259 1.306879,3.046875 0.917184,0.0022 0.862999,0.646615 -0.232469,2.765018 -1.383259,2.674932 -1.34916,2.800894 1.078573,3.984371 3.556568,1.73377 3.647716,3.14471 0.329768,5.10466 -1.930168,1.14018 -2.800429,2.32388 -2.628637,3.57537 0.265108,1.93128 -1.211992,2.54707 -4.19631,1.74938 z m 91.422315,-2.02922 c -0.76652,-0.47994 -1.07507,-11.120079 -0.38279,-13.200861 0.0728,-0.218793 1.18704,0.593025 2.4761,1.804041 2.54546,2.391337 2.97735,4.6164 1.23438,6.35937 -2.23952,2.23952 0.04,2.10083 2.64183,-0.16073 3.02285,-2.62758 2.52057,-4.770565 -1.60851,-6.862727 C 171.80557,94.622494 170.51604,90 174.26695,90 c 2.64275,0 7.60805,6.980606 7.60805,10.69598 0,3.91856 -7.34303,9.90331 -10.06206,8.20084 z M 34.771761,104.14676 C 29.921374,99.296372 33.630073,93.036777 44.842687,87.148908 l 5.936436,-3.11729 3.150723,1.696777 c 4.449936,2.396448 10.089667,7.76457 9.373999,8.922542 -0.767805,1.242338 -3.949621,1.267032 -4.710095,0.03656 -1.073074,-1.73627 -3.073401,-0.955765 -3.672982,1.433156 -0.372349,1.483557 -1.848045,2.968191 -3.943613,3.967504 l -3.348617,1.59684 -2.743853,-3.070903 c -3.109579,-3.480225 -4.941463,-3.117675 -4.357318,0.862359 0.282085,1.921964 -0.20433,3.255034 -1.700628,4.660744 l -2.095718,1.96883 -1.95926,-1.95927 z M 90,85.949137 c 0,-5.003789 11.72232,-11.019727 18.14908,-9.314174 4.0942,1.086533 3.628,0.281953 -1.86605,-3.220456 -5.06768,-3.230598 5.65441,-1.08153 11.41833,2.288618 7.37228,4.310555 7.36947,4.122235 0.11413,7.656796 -9.45615,4.606724 -19.268462,3.21807 -17.10467,-2.420679 1.08485,-2.82708 -3.041348,-1.028183 -5.163445,2.251107 C 93.203943,86.811658 90,88.405026 90,85.949137 Z M 61.402296,80.618603 c -0.320848,-0.519145 0.252503,-2.117761 1.274115,-3.552482 1.365946,-1.918295 1.815779,-3.941825 1.699906,-7.646863 -0.17327,-5.540403 1.690289,-7.713862 2.707492,-3.157732 0.324755,1.454598 0.764562,3.300909 0.97735,4.102912 0.212788,0.802005 -0.480758,2.389498 -1.541214,3.527762 -1.060455,1.138266 -1.681348,2.468826 -1.379763,2.956802 0.587768,0.951028 -1.406112,4.713498 -2.497866,4.713498 -0.361163,0 -0.919171,-0.424754 -1.24002,-0.943897 z M 90,76.052292 c 0,-2.438796 10.50461,-4.891805 11.82178,-2.76059 0.262,0.423939 -0.52258,0.770798 -1.74351,0.770798 -1.220948,0 -3.038817,0.619395 -4.039711,1.376435 C 94.041666,76.949306 90,77.359833 90,76.052292 Z m -5.625,-4.705175 c 0,-12.826592 35.30014,-15.090835 43.00195,-2.758258 1.66604,2.667751 0.33662,3.547479 -1.58169,1.046671 C 117.74293,59.138153 95.203556,60.283456 89.41029,71.484375 87.551837,75.077581 84.375,74.990983 84.375,71.347118 Z M 78.427422,70.343425 C 77.120429,67.235003 77.329624,63.75 78.823207,63.75 c 1.356425,0 3.008108,7.606185 1.89368,8.720613 -0.684474,0.684474 -1.378307,0.03982 -2.289465,-2.127188 z M 186.48225,103.59375 c 0.0394,-2.1479 -0.16321,-2.4802 -0.85725,-1.40625 -0.49984,0.77344 -0.8856,2.88281 -0.85725,4.6875 0.0651,4.14495 1.63342,1.14347 1.7145,-3.28125 z m 0.0659,-26.015625 C 186.5637,66.657783 186.17295,65.97563 181.875,69.419932 l -2.34375,1.878238 2.57812,-0.594467 c 2.99336,-0.690211 2.892,-1.123332 2.65051,11.327547 -0.1173,6.047957 0.11071,8.039243 0.80513,7.03125 0.53283,-0.773437 0.97524,-5.941406 0.98314,-11.484375 z"
     id="path5013"
     inkscape:connector-curvature="0" />
</svg>
